<?xml version="1.0" standalone="no"?>
<!DOCTYPE svg PUBLIC "-//W3C//DTD SVG 20010904//EN"
 "http://www.w3.org/TR/2001/REC-SVG-20010904/DTD/svg10.dtd">
<svg version="1.0" xmlns="http://www.w3.org/2000/svg"
 width="3000.000000pt" height="2000.000000pt" viewBox="0 0 3000.000000 2000.000000"
 preserveAspectRatio="xMidYMid meet">

<g transform="translate(0.000000,2000.000000) scale(0.100000,-0.100000)"
fill="#000000" stroke="none">
<path d="M15473 15340 c-66 -40 -189 -183 -433 -501 -52 -68 -169 -201 -260
-294 -91 -94 -247 -257 -347 -363 -170 -180 -186 -200 -236 -300 -74 -143
-134 -286 -213 -505 -88 -243 -123 -327 -204 -487 -169 -332 -392 -632 -487
-656 -31 -8 -52 1 -62 28 -12 33 2 56 147 232 71 86 154 193 184 239 103 153
211 387 276 602 53 172 101 365 91 365 -19 0 -105 -48 -164 -92 -161 -119
-263 -229 -398 -428 -107 -159 -175 -233 -278 -306 -113 -79 -207 -171 -349
-339 -70 -82 -148 -169 -174 -193 -52 -48 -163 -122 -216 -144 -50 -21 -86
-68 -105 -135 -57 -207 -200 -473 -453 -843 -313 -458 -524 -690 -1002 -1100
-156 -135 -375 -334 -486 -442 -118 -115 -213 -200 -228 -204 -32 -8 -47 3
-96 76 -21 30 -121 136 -221 235 -203 199 -170 178 -427 271 -201 73 -266 120
-376 268 -103 139 -384 412 -516 503 -83 56 -545 283 -599 293 -64 12 -139 -1
-195 -34 -67 -39 -130 -99 -601 -572 -260 -261 -551 -542 -690 -665 -131 -118
-316 -284 -409 -369 -172 -157 -240 -221 -807 -766 -173 -166 -384 -364 -469
-441 -100 -89 -173 -164 -205 -210 -27 -38 -78 -110 -112 -159 -105 -151
-1415 -1452 -1918 -1905 -123 -111 -431 -363 -577 -473 -34 -25 -39 -26 -44
-11 -4 9 -1 20 6 25 18 11 6 38 -61 141 -100 152 -154 247 -145 256 8 8 46
-27 46 -42 0 -6 12 -22 26 -36 15 -13 58 -66 96 -117 61 -81 102 -121 113
-110 11 11 -38 115 -83 175 -29 39 -64 97 -78 129 -35 77 -74 193 -74 216 0
17 4 16 35 -8 19 -14 35 -23 35 -20 0 21 -52 99 -149 225 -61 79 -111 148
-111 154 0 19 -17 -5 -55 -78 -35 -66 -138 -221 -241 -362 -52 -72 -40 -83 27
-28 23 20 46 32 51 27 11 -11 -14 -93 -42 -132 -18 -26 -21 -40 -17 -75 8 -53
-10 -109 -54 -170 -29 -40 -30 -45 -15 -60 15 -15 15 -19 -1 -48 -22 -44 -57
-97 -130 -199 l-63 -88 32 0 c51 0 86 28 204 159 61 69 116 121 126 121 10 0
18 -4 18 -9 0 -14 -93 -127 -194 -236 -109 -118 -159 -182 -191 -244 -22 -45
-23 -47 -5 -69 30 -37 9 -77 -64 -122 -167 -104 -316 -204 -316 -212 0 -15 83
1 249 48 85 24 156 42 158 41 1 -2 -56 -70 -127 -152 -71 -82 -127 -151 -125
-153 8 -8 76 48 175 143 88 85 155 134 167 121 3 -2 -20 -56 -50 -119 -60
-125 -77 -177 -56 -177 8 0 61 48 119 108 58 59 116 116 128 126 38 33 24 0
-21 -50 -27 -30 -51 -71 -62 -104 -15 -45 -35 -72 -106 -144 -48 -49 -86 -93
-83 -98 3 -4 18 -8 33 -8 16 0 34 -7 41 -15 17 -20 52 -19 81 3 13 11 35 22
49 25 15 4 33 21 45 44 23 45 237 261 243 245 4 -14 -31 -82 -64 -122 -27 -31
-27 -32 -10 -61 15 -26 15 -31 2 -58 -15 -29 -33 -111 -24 -111 3 0 24 19 48
42 41 40 43 41 57 22 12 -16 14 -42 8 -154 -4 -74 -8 -175 -9 -225 l-1 -90 37
-3 c33 -3 38 -7 50 -45 11 -36 17 -42 45 -45 22 -2 37 3 52 20 41 43 46 87 46
403 0 165 4 306 8 313 5 6 13 12 18 12 6 0 55 -43 110 -95 109 -105 123 -110
206 -79 l42 16 -112 99 c-98 86 -156 154 -142 167 2 2 31 -17 64 -42 75 -58
199 -131 265 -158 l50 -19 -19 21 c-11 13 -80 74 -153 137 -139 121 -233 226
-208 231 23 5 64 -21 150 -93 95 -79 111 -88 141 -81 16 4 34 -3 60 -24 38
-30 81 -47 91 -37 10 9 -15 46 -77 114 -67 74 -79 104 -57 144 20 34 16 40
-104 168 -82 85 -117 136 -103 149 2 3 20 -6 38 -19 109 -77 148 -101 153 -96
17 16 -13 63 -82 129 -42 40 -91 95 -110 122 l-33 50 22 40 c12 22 33 46 47
53 150 77 680 319 680 309 -1 -23 -44 -132 -59 -152 -25 -31 -21 -40 25 -59
19 -8 34 -21 34 -30 0 -9 -20 -35 -44 -58 -26 -25 -64 -78 -92 -130 -45 -86
-46 -89 -45 -174 1 -77 -2 -92 -30 -150 -31 -64 -31 -66 -15 -99 9 -19 16 -43
16 -54 0 -20 -42 -56 -97 -84 -53 -27 -63 -50 -55 -136 6 -64 10 -75 27 -78
80 -12 83 -25 20 -90 -25 -25 -45 -53 -45 -62 0 -57 99 -66 230 -20 108 38
116 38 134 -5 17 -41 31 -43 63 -13 43 41 45 32 48 -346 2 -146 4 -171 18
-180 22 -14 66 12 91 53 16 28 18 53 17 219 0 102 4 204 10 224 11 43 36 54
93 44 50 -10 68 1 61 35 -6 25 -4 29 15 29 12 0 30 -5 41 -11 33 -17 42 -5 19
24 -12 15 -20 31 -18 36 3 8 64 -9 119 -33 11 -5 19 1 27 18 8 19 26 29 66 41
31 9 58 20 61 25 3 5 -25 25 -62 44 -116 58 -130 94 -48 123 38 13 69 33 62
39 -2 2 -28 8 -57 14 -99 19 -111 59 -24 81 45 12 70 31 60 47 -3 5 -30 13
-61 17 -30 3 -65 15 -77 25 -22 18 -22 19 -5 54 13 29 15 42 6 57 -20 38 -4
52 50 44 39 -5 49 -3 54 9 5 12 -25 39 -108 101 -118 89 -134 111 -96 137 10
7 22 28 25 45 4 18 14 37 23 41 13 8 10 18 -18 68 -18 32 -40 68 -50 79 -14
15 -17 34 -15 82 2 55 6 65 30 84 l27 22 -49 28 c-28 16 -67 49 -88 75 -37 44
-37 47 -19 60 45 33 397 203 475 229 115 38 241 45 287 16 46 -29 85 -86 164
-243 62 -122 103 -178 130 -178 5 0 47 36 94 79 118 110 256 175 410 195 165
21 440 27 594 13 190 -16 273 8 432 127 162 123 313 290 442 487 91 141 188
246 319 345 132 99 182 107 234 38 35 -45 63 -148 71 -254 l6 -86 -84 -70
c-312 -264 -2075 -1519 -2994 -2131 -335 -223 -312 -205 -298 -235 22 -50 127
-51 290 -3 65 18 332 108 593 198 629 217 853 287 922 287 35 0 118 32 295
113 78 37 166 73 195 81 49 13 287 36 568 55 127 9 390 14 390 8 0 -5 -47 -35
-525 -332 -249 -154 -445 -285 -445 -295 0 -5 -57 -51 -127 -102 -69 -51 -160
-120 -202 -153 l-76 -60 40 -5 c141 -18 364 56 960 318 976 429 1275 522 1508
473 69 -15 163 -16 227 -4 92 19 173 15 335 -18 183 -36 265 -40 316 -14 43
23 331 197 425 258 88 57 176 150 281 297 136 192 268 330 313 330 13 0 30
-22 57 -72 70 -134 178 -212 338 -245 105 -21 135 -12 268 77 135 90 236 196
318 335 72 120 130 192 163 201 32 8 63 -7 203 -99 222 -146 409 -248 493
-269 142 -35 134 -65 -30 -118 -197 -63 -317 -133 -550 -321 -167 -135 -351
-301 -364 -330 -13 -27 8 -67 39 -75 31 -8 65 4 300 109 259 114 339 144 498
182 78 19 171 44 207 55 87 29 218 50 308 50 85 0 129 17 168 64 54 66 184
292 317 553 76 148 152 287 168 307 53 64 77 55 291 -114 159 -125 466 -346
546 -393 110 -64 186 -84 199 -51 9 24 -93 122 -235 225 -68 50 -185 139 -260
198 -351 275 -385 296 -497 296 -118 0 -168 -30 -368 -223 -222 -214 -337
-294 -443 -309 -90 -12 -217 73 -504 338 -85 79 -201 184 -258 232 -110 95
-150 150 -179 247 -21 71 -20 187 3 275 24 93 23 169 -4 221 -11 22 -51 76
-89 120 -37 43 -89 111 -115 149 -25 39 -81 108 -123 155 -135 152 -177 180
-267 180 -59 0 -99 -16 -164 -65 -27 -21 -68 -46 -91 -57 -60 -26 -257 -85
-271 -80 -29 9 -5 33 84 83 110 61 226 163 284 249 40 59 86 90 134 90 50 0
108 -41 236 -167 99 -96 134 -124 151 -121 26 3 124 144 244 348 40 69 83 136
94 150 l20 25 128 -131 c75 -76 178 -169 248 -221 197 -148 321 -279 456 -479
38 -57 96 -132 129 -167 33 -36 60 -70 60 -77 0 -7 -22 -42 -49 -79 -26 -36
-89 -127 -139 -201 -50 -74 -119 -170 -152 -213 -36 -48 -60 -88 -60 -103 0
-29 41 -74 68 -74 33 0 188 118 326 248 132 125 232 204 273 216 34 11 89 -20
158 -89 111 -111 217 -169 411 -226 234 -69 414 -158 684 -339 282 -188 360
-229 360 -187 0 49 -132 170 -315 290 -295 192 -459 280 -650 348 -204 72
-296 124 -419 237 -39 36 -89 73 -111 83 -79 36 -167 20 -272 -49 -29 -18 -58
-32 -64 -30 -7 2 8 27 34 56 26 29 54 66 63 84 24 46 14 110 -25 161 -17 23
-78 110 -136 192 -186 266 -295 376 -540 539 -114 76 -186 135 -376 312 -246
230 -281 265 -344 353 -51 71 -255 468 -255 497 0 35 26 54 76 54 42 0 50 -5
143 -89 54 -50 161 -156 237 -238 231 -246 334 -350 413 -416 41 -34 144 -132
230 -217 86 -85 248 -242 361 -349 207 -195 227 -210 512 -391 146 -92 327
-273 432 -432 82 -125 100 -142 189 -182 31 -14 81 -48 111 -76 56 -53 70 -58
121 -47 27 6 38 0 105 -58 175 -153 256 -219 429 -345 100 -73 186 -140 191
-150 6 -12 5 -37 -5 -74 -17 -66 -25 -83 -101 -206 -30 -51 -76 -135 -100
-188 -25 -54 -76 -145 -115 -204 -38 -59 -84 -137 -101 -174 -31 -66 -32 -67
-167 -156 -171 -112 -283 -167 -645 -317 -159 -66 -293 -126 -297 -133 -24
-37 4 -78 53 -78 17 0 115 13 217 29 102 16 231 32 286 36 240 15 413 54 549
122 88 43 114 62 202 143 95 87 173 131 312 175 65 20 162 53 217 72 415 145
515 170 739 183 83 5 171 14 196 19 66 14 128 6 290 -39 148 -40 305 -70 373
-70 l39 0 -20 -32 c-66 -108 -82 -154 -82 -234 0 -65 -4 -87 -25 -126 -30 -56
-31 -76 -8 -116 17 -29 17 -31 -2 -52 -11 -13 -44 -36 -73 -52 -60 -35 -67
-50 -55 -134 8 -56 9 -58 41 -65 18 -4 35 -9 38 -12 10 -9 -24 -64 -50 -81
-29 -18 -35 -56 -11 -76 23 -19 108 -13 187 14 95 33 116 33 124 1 10 -39 28
-48 49 -25 24 26 42 25 48 -2 3 -13 6 -84 6 -159 l1 -136 -57 -6 c-80 -9 -399
-26 -566 -31 -76 -2 -140 -6 -143 -9 -5 -5 96 -30 171 -43 22 -3 165 -6 318
-5 l277 1 0 -39 c0 -39 19 -59 43 -45 26 15 60 50 68 72 5 12 16 22 26 22 73
2 498 31 583 40 319 33 322 34 405 17 50 -10 119 -36 183 -67 57 -27 116 -50
132 -50 15 0 70 -14 121 -32 91 -30 101 -31 279 -33 133 -2 212 -8 280 -21 79
-16 139 -19 350 -18 298 0 348 10 513 94 111 57 295 114 426 131 119 16 315 6
426 -21 69 -16 128 -22 255 -25 203 -3 335 -29 595 -114 185 -61 242 -75 355
-86 36 -4 99 -13 140 -21 62 -12 270 -14 1193 -14 616 0 1122 2 1125 4 4 2
113 7 242 10 234 7 356 21 560 66 l85 18 -455 1 c-1851 4 -1917 5 -2032 28
-59 12 -157 25 -219 28 -88 5 -129 13 -192 35 -47 18 -137 38 -221 50 -77 12
-302 46 -499 76 -384 58 -623 84 -782 84 -147 0 -175 11 -238 89 -34 42 -90
24 -443 -135 -78 -35 -181 -76 -230 -91 -87 -27 -94 -27 -318 -25 -126 1 -232
4 -234 7 -3 3 -6 56 -6 118 -1 138 4 147 81 147 53 0 54 0 51 28 -3 29 9 32
61 16 23 -7 23 -7 6 20 -10 15 -15 29 -12 32 3 4 28 -2 55 -11 l48 -18 27 27
c14 14 34 26 45 26 10 0 27 6 38 14 18 14 17 16 -27 35 -57 26 -99 58 -99 77
0 8 20 23 44 34 49 20 67 40 39 41 -73 3 -118 28 -95 51 16 16 91 38 108 31 7
-3 26 4 42 16 45 32 80 42 175 51 74 7 98 14 143 41 85 52 176 123 300 235 64
58 133 113 155 124 96 49 423 70 709 45 292 -26 360 -19 416 42 14 15 68 111
119 213 104 205 146 264 205 281 76 23 146 -11 310 -150 92 -78 325 -237 430
-294 122 -65 365 -175 445 -200 44 -14 206 -46 360 -72 305 -50 391 -70 517
-116 184 -67 221 -78 342 -104 70 -15 133 -24 141 -21 8 3 15 14 15 25 0 34
-148 115 -354 193 -72 27 -223 94 -336 148 -113 54 -257 117 -320 140 -213 77
-440 212 -676 402 -130 104 -233 199 -519 478 -220 214 -527 450 -680 521 -89
42 -113 77 -171 252 -26 78 -53 154 -60 169 -13 25 -13 27 3 21 28 -10 107
-63 245 -165 145 -106 304 -206 528 -332 265 -150 509 -319 785 -546 232 -191
267 -213 893 -579 266 -156 351 -195 336 -157 -6 16 -380 265 -594 396 -320
196 -456 297 -801 594 -230 198 -393 311 -924 644 l-299 187 -64 105 c-101
165 -181 260 -397 475 -344 341 -431 460 -665 908 -85 163 -161 294 -298 515
-47 76 -124 213 -378 678 -181 332 -191 346 -257 366 -30 9 -58 9 -119 0 -89
-13 -239 -77 -493 -211 -156 -82 -210 -116 -272 -173 -24 -21 -46 -38 -50 -38
-5 -1 -27 -5 -50 -9 -83 -16 -130 0 -254 89 -172 122 -256 198 -427 385 -242
262 -320 342 -407 410 -92 72 -207 189 -253 257 -45 66 -87 157 -108 234 -16
59 -16 77 -4 189 21 207 0 256 -116 270 -44 6 -217 -6 -294 -20 -8 -1 -40 -6
-70 -10 -82 -10 -113 -22 -224 -87 -158 -94 -245 -134 -400 -187 -80 -28 -199
-72 -264 -100 -131 -56 -166 -62 -182 -32 -15 29 1 40 182 129 148 73 231 108
541 227 54 21 128 58 165 82 37 25 90 54 119 64 60 23 94 59 175 186 78 121
190 252 353 412 100 100 156 164 212 247 94 140 94 149 -7 148 -69 -1 -86 -6
-205 -59 -156 -69 -177 -75 -198 -63 -22 12 -22 51 1 70 35 31 382 197 443
213 45 12 82 15 124 11 182 -20 194 -19 328 18 158 44 194 61 218 100 23 38
24 77 3 119 -9 18 -107 124 -218 237 -329 333 -389 421 -500 720 -126 336
-186 576 -186 736 l0 55 28 -20 c46 -32 138 -173 327 -501 89 -153 176 -287
244 -375 26 -33 68 -90 93 -126 68 -96 150 -165 289 -244 106 -60 140 -86 235
-180 61 -60 135 -144 163 -185 60 -86 62 -103 17 -226 -37 -103 -50 -201 -42
-327 6 -86 4 -118 -9 -156 -16 -49 -150 -232 -486 -662 -220 -283 -383 -505
-421 -575 -49 -89 -47 -178 5 -255 28 -42 59 -48 79 -17 8 13 26 61 41 108 55
176 145 285 452 540 210 175 353 316 425 419 25 35 50 61 61 61 37 0 267 -268
483 -565 270 -371 349 -460 697 -790 115 -109 189 -206 251 -330 22 -44 54
-100 71 -125 53 -78 168 -189 292 -283 131 -100 160 -127 376 -359 l147 -156
46 -149 c93 -292 121 -370 182 -493 34 -69 74 -160 88 -203 70 -210 139 -299
543 -703 280 -280 339 -334 368 -340 43 -8 54 0 33 23 -9 10 -62 86 -118 168
-116 168 -178 250 -263 343 -41 46 -59 75 -63 102 -9 55 -36 94 -80 115 -93
44 -112 68 -178 232 -24 61 -89 191 -144 289 -167 301 -226 424 -202 424 5 0
56 -28 112 -63 57 -35 135 -80 174 -101 137 -72 228 -174 324 -365 87 -175
129 -278 195 -476 86 -261 126 -356 193 -465 49 -78 91 -120 217 -215 127 -95
212 -182 312 -317 111 -149 175 -221 343 -388 168 -166 280 -298 441 -522 123
-169 241 -302 420 -469 282 -266 449 -401 637 -516 133 -83 351 -188 417 -203
52 -12 144 -5 129 10 -5 4 -45 23 -89 42 -140 60 -323 184 -520 353 -80 68
-320 294 -594 558 -103 99 -198 217 -333 408 -142 202 -210 281 -463 539 -132
135 -273 284 -313 330 -97 111 -204 207 -325 287 -54 36 -110 82 -126 102 -71
90 -133 254 -200 532 -97 397 -223 687 -364 836 -64 68 -109 100 -235 165
-199 104 -363 233 -572 452 -129 135 -253 258 -457 456 -151 147 -208 232
-368 555 -131 264 -204 387 -339 575 -122 168 -148 212 -273 455 -73 140 -159
287 -237 405 -68 102 -157 237 -198 300 -41 63 -95 139 -121 168 -26 29 -47
58 -47 63 0 12 69 80 107 106 13 8 31 12 42 8 22 -7 246 -288 383 -480 47 -66
123 -183 170 -260 47 -77 112 -183 145 -235 71 -112 108 -183 169 -328 74
-174 198 -421 254 -507 33 -50 105 -132 194 -221 99 -98 170 -181 238 -275
100 -140 273 -345 387 -460 37 -36 106 -89 155 -119 49 -29 119 -79 155 -110
102 -86 125 -102 282 -188 81 -44 186 -106 233 -137 113 -73 156 -95 301 -148
154 -56 170 -65 226 -124 74 -76 326 -392 344 -430 15 -31 15 -36 1 -59 -9
-13 -25 -24 -35 -24 -22 0 -96 75 -182 185 -108 138 -187 221 -236 247 -48 26
-265 98 -296 98 -9 0 -19 -5 -22 -10 -11 -18 32 -129 111 -291 87 -176 114
-266 113 -377 0 -56 6 -93 22 -137 73 -197 244 -401 486 -583 103 -77 131
-105 174 -168 71 -106 106 -142 239 -249 120 -96 234 -211 331 -331 30 -38
125 -157 211 -264 86 -107 198 -241 249 -298 170 -187 197 -223 254 -342 144
-301 165 -332 354 -520 257 -256 408 -367 734 -537 111 -58 227 -121 258 -139
63 -38 97 -42 139 -17 25 14 36 15 82 5 75 -16 244 -22 280 -10 31 11 58 57
58 98 0 72 -105 147 -636 451 -231 131 -349 213 -509 350 -71 61 -173 141
-225 179 -154 110 -177 139 -402 505 -161 262 -154 249 -184 338 -29 86 -29
87 -3 87 35 0 150 -74 347 -223 361 -274 408 -307 562 -399 85 -50 250 -151
365 -223 391 -245 546 -330 780 -429 61 -25 155 -71 210 -102 160 -91 191
-105 237 -111 l43 -6 -29 31 c-15 17 -69 52 -119 79 -97 51 -486 305 -690 450
-273 193 -481 358 -787 623 -251 216 -531 391 -1075 672 -449 232 -545 290
-545 332 0 26 118 49 255 52 215 4 404 -25 601 -91 146 -49 227 -88 394 -191
220 -137 404 -240 703 -396 558 -289 645 -343 890 -546 198 -165 500 -362 554
-362 18 0 33 4 33 10 0 15 -105 99 -252 200 -182 128 -208 149 -413 351 -214
210 -430 402 -574 508 -259 191 -337 257 -526 444 -110 110 -218 212 -240 227
-97 67 -232 123 -470 196 -203 62 -551 208 -726 306 -138 78 -518 375 -621
487 -60 65 -97 125 -86 137 4 3 74 7 158 8 170 3 194 12 217 77 15 44 16 127
2 170 -7 19 -84 130 -173 247 -89 117 -180 239 -204 270 -57 75 -117 199 -139
287 -12 51 -16 106 -15 205 1 96 -3 151 -14 190 -29 104 -106 200 -277 343
-76 64 -124 130 -188 257 -44 88 -65 117 -129 180 -84 81 -96 101 -184 311
-45 107 -66 144 -99 177 -50 48 -112 82 -165 89 -50 7 -250 -46 -356 -93 -76
-34 -153 -65 -448 -180 -123 -48 -163 -53 -163 -20 0 37 78 83 213 125 151 48
298 117 419 199 165 111 269 152 384 152 109 0 110 2 110 195 -1 89 -5 197
-11 240 -6 44 -12 140 -15 215 -5 136 2 178 32 187 17 6 116 -89 153 -147 17
-26 43 -85 59 -131 47 -136 66 -180 187 -423 138 -275 179 -344 318 -539 120
-169 173 -260 210 -366 40 -112 99 -218 170 -307 88 -110 332 -344 560 -538
342 -290 428 -368 457 -415 17 -25 54 -124 85 -221 159 -506 238 -721 358
-975 44 -92 92 -155 120 -155 23 0 55 39 68 85 7 23 12 98 11 180 -1 183 -27
287 -119 474 -71 146 -167 423 -162 467 2 15 8 29 14 31 6 2 179 -168 385
-378 235 -240 438 -438 547 -531 230 -199 305 -269 512 -478 149 -150 196
-191 320 -276 85 -58 178 -132 226 -179 69 -69 88 -96 143 -205 67 -132 145
-259 217 -350 63 -81 732 -751 854 -855 163 -140 293 -256 311 -279 9 -12 30
-61 48 -110 27 -76 29 -87 14 -81 -34 15 -71 17 -91 6 -12 -6 -35 -39 -51 -74
-17 -34 -55 -90 -85 -125 -36 -40 -59 -78 -66 -105 -19 -75 -30 -101 -51 -123
-32 -35 -22 -65 29 -82 42 -14 52 -31 33 -61 -7 -11 -22 -9 -82 14 -57 21 -85
39 -120 76 -25 27 -50 49 -56 49 -6 0 -76 43 -154 96 -184 123 -226 144 -287
144 -40 0 -60 -7 -109 -39 -63 -40 -73 -55 -73 -100 0 -34 21 -54 85 -82 57
-24 105 -65 105 -88 0 -9 -7 -37 -17 -63 -16 -47 -16 -47 10 -85 39 -56 51
-97 37 -123 -13 -24 -66 -50 -103 -50 -13 0 -44 -11 -68 -23 -67 -36 -105 -45
-214 -52 -55 -3 -158 -10 -230 -16 -71 -5 -138 -9 -147 -9 -10 0 -18 -6 -18
-14 0 -23 75 -31 275 -31 136 1 201 5 265 19 69 15 105 17 190 11 136 -10 150
-9 310 20 74 14 146 27 160 29 l25 5 3 -102 c3 -99 2 -104 -33 -174 -41 -84
-43 -101 -12 -153 28 -50 22 -61 -64 -117 -35 -23 -77 -53 -92 -67 -28 -26
-28 -26 -21 -113 4 -49 11 -94 17 -100 5 -7 24 -13 42 -13 37 0 58 -19 49 -44
-8 -20 -40 -20 -194 -2 -160 20 -241 42 -310 87 -83 53 -107 65 -170 79 -30 7
-93 29 -140 50 -47 20 -132 52 -190 70 -93 29 -114 32 -185 27 -44 -3 -134
-19 -200 -36 -219 -55 -352 -80 -462 -86 -165 -8 -260 -24 -353 -60 -214 -81
-256 -84 -1111 -80 -424 2 -695 0 -654 -5 39 -4 300 -9 580 -10 281 -1 555 -6
610 -11 55 -5 204 -10 330 -12 176 -3 248 -8 305 -22 157 -37 490 -11 766 59
191 49 263 55 345 28 35 -12 103 -26 150 -31 48 -5 113 -17 145 -25 33 -8 128
-24 212 -36 85 -12 215 -36 290 -54 136 -31 137 -31 134 -58 -2 -17 4 -34 19
-49 20 -20 29 -21 103 -16 44 3 101 12 125 21 25 9 75 16 118 16 68 0 74 -2
83 -24 14 -37 29 -40 59 -12 30 28 46 32 57 14 6 -9 14 -381 14 -623 0 -8 9
-19 21 -25 17 -10 27 -7 61 16 70 49 71 57 72 345 1 311 -3 299 116 299 42 0
80 4 85 9 6 5 67 11 138 15 145 7 322 29 417 51 l65 15 -130 -5 c-293 -11
-384 -9 -405 10 -11 10 -20 27 -20 37 0 22 13 20 89 -13 59 -26 73 -24 92 10
12 21 29 31 65 40 27 7 60 18 74 26 24 13 23 14 -63 55 -87 42 -130 80 -125
109 2 9 21 24 43 34 113 50 117 60 29 75 -110 18 -138 69 -52 92 66 17 93 34
93 55 0 17 -10 21 -65 28 -105 13 -135 43 -106 104 14 30 15 41 5 64 -20 49
-7 60 63 57 85 -4 90 17 16 69 l-53 38 35 2 c19 1 97 10 173 19 130 17 144 17
255 0 64 -9 178 -33 253 -53 l137 -36 -81 -99 c-110 -134 -121 -148 -107 -148
19 0 52 21 120 75 58 47 130 92 130 81 0 -2 -16 -30 -35 -61 -38 -64 -61 -121
-70 -177 -5 -33 -16 -45 -80 -93 -74 -55 -122 -115 -91 -115 30 0 63 19 124
74 34 31 64 56 65 56 1 0 17 4 35 9 47 14 42 -2 -40 -104 -82 -105 -99 -139
-100 -206 0 -67 12 -80 63 -66 45 11 74 -2 51 -25 -14 -14 -16 -48 -4 -48 5 0
31 16 58 35 74 53 92 44 57 -30 -13 -27 -14 -38 -5 -47 12 -12 56 28 138 127
38 46 88 84 98 74 2 -2 -1 -33 -6 -67 -15 -101 4 -139 47 -92 57 63 88 -22 79
-215 -7 -160 6 -315 27 -328 52 -32 165 47 190 133 14 52 18 257 6 375 -5 48
-4 86 1 94 14 19 81 6 149 -30 64 -34 88 -36 126 -10 48 31 62 64 58 133 -1
10 -24 43 -51 73 -33 37 -50 64 -50 82 0 24 1 25 18 11 32 -29 81 -48 121 -48
22 0 61 -7 86 -16 55 -18 94 -15 109 8 8 13 8 23 -2 38 -6 11 -18 29 -24 40
-10 16 -10 24 -1 40 12 18 7 23 -50 62 -73 49 -154 131 -172 172 -9 20 -9 39
-3 66 10 37 8 41 -51 117 -34 43 -61 84 -61 90 0 7 -7 16 -16 21 -9 5 -14 15
-10 21 5 8 15 5 33 -9 53 -41 77 -17 39 40 -14 22 -26 46 -26 53 0 16 26 41
53 50 29 11 19 39 -38 112 -30 39 -66 89 -81 112 -23 39 -24 44 -10 59 9 8 16
22 16 30 0 18 31 18 56 -1 22 -17 60 -19 69 -4 4 5 -48 63 -114 127 -67 64
-121 125 -121 135 0 14 9 17 55 17 71 0 75 11 42 98 -14 37 -31 101 -37 142
-12 81 -44 158 -139 330 -33 58 -66 129 -76 158 -18 56 -36 72 -82 72 -45 0
-69 -25 -120 -123 -48 -93 -98 -152 -233 -270 -42 -37 -49 -47 -30 -41 50 13
98 16 104 5 10 -16 -32 -75 -129 -183 l-87 -97 -61 41 c-102 69 -259 182 -507
367 -359 267 -537 395 -750 541 -345 236 -430 311 -595 520 -55 69 -138 165
-185 214 -94 98 -302 276 -395 339 -84 56 -116 88 -198 197 -93 122 -257 286
-482 481 -109 95 -277 257 -427 413 -304 315 -442 475 -548 631 -18 28 -117
136 -220 240 -195 200 -274 295 -383 460 -71 108 -116 145 -176 145 -50 0
-107 -35 -142 -87 -47 -70 -90 -113 -113 -113 -24 0 -390 365 -430 429 -14 21
-46 95 -72 162 -61 164 -180 395 -275 538 -43 64 -162 224 -265 356 -103 132
-266 346 -362 475 -103 139 -217 278 -276 339 -145 149 -308 286 -364 307 -26
9 -87 35 -135 57 -79 35 -95 39 -150 35 -171 -11 -454 -224 -670 -503 -144
-184 -220 -269 -560 -622 -224 -234 -306 -313 -323 -313 -19 0 -32 17 -75 100
-51 99 -301 490 -438 685 -39 55 -111 147 -161 205 -154 179 -205 253 -294
427 -99 196 -134 238 -319 396 -158 135 -266 248 -370 389 -98 133 -155 202
-262 318 -42 46 -113 135 -157 197 -93 132 -143 185 -297 313 -63 52 -152 138
-199 190 -152 169 -201 200 -320 200 -58 0 -142 23 -142 39 0 4 -17 27 -37 51
-48 55 -101 80 -179 80 -71 0 -106 19 -229 129 -96 85 -121 96 -162 71z m864
-649 c19 -10 415 -422 474 -494 29 -34 71 -91 95 -127 51 -78 564 -601 672
-685 40 -31 77 -68 83 -82 5 -13 9 -51 9 -84 0 -67 -15 -78 -46 -31 -31 48
-137 152 -199 196 -33 24 -103 67 -155 96 -164 91 -231 152 -337 310 -28 41
-82 111 -121 155 -39 43 -112 146 -163 228 -108 175 -205 307 -317 432 -44 50
-78 94 -75 98 5 8 58 0 80 -12z m-1263 -1047 c17 -17 19 -70 7 -179 -8 -78 2
-135 39 -217 69 -149 63 -251 -18 -360 -61 -82 -197 -223 -268 -279 -140 -110
-177 -146 -257 -252 -47 -61 -158 -192 -247 -289 -169 -186 -165 -183 -260
-190 -27 -2 -35 1 -38 15 -7 36 8 64 78 138 39 40 89 106 112 144 64 109 130
204 283 410 188 253 202 274 242 366 41 96 67 195 88 336 13 89 21 115 46 150
16 24 45 76 64 117 44 97 90 129 129 90z m2871 -1161 c14 -16 55 -86 92 -158
36 -71 110 -206 163 -300 125 -219 135 -239 213 -431 69 -170 132 -288 264
-494 93 -144 213 -370 213 -400 0 -11 -4 -20 -10 -20 -17 0 -243 204 -321 289
-100 111 -153 190 -241 361 -41 80 -123 226 -183 325 -122 202 -187 333 -238
481 -61 176 -68 302 -20 357 22 24 38 21 68 -10z m3335 -110 c23 -27 80 -104
127 -173 117 -172 284 -391 457 -604 222 -271 326 -429 437 -663 33 -70 82
-171 107 -223 26 -52 49 -98 50 -102 19 -41 -158 102 -294 238 -92 93 -185
233 -273 414 -53 110 -90 170 -153 250 -166 208 -236 322 -457 741 -83 159
-84 215 -1 122z m-7342 -702 c8 -4 12 -17 10 -29 -3 -18 -343 -385 -376 -405
-17 -11 -42 10 -42 36 0 25 217 364 242 378 10 5 44 14 76 18 79 12 75 12 90
2z m6277 -781 c16 -18 16 -22 1 -66 -9 -26 -16 -59 -16 -73 0 -47 46 -125 131
-225 130 -152 161 -197 148 -213 -6 -7 -16 -13 -21 -13 -14 0 -83 54 -148 115
-30 29 -109 97 -175 150 -243 199 -261 218 -244 263 9 24 9 24 89 23 40 -1 72
7 120 28 78 35 92 37 115 11z m-4396 -466 c108 -59 230 -125 271 -147 82 -45
179 -104 400 -247 212 -136 304 -201 525 -370 39 -29 124 -89 190 -132 291
-192 292 -194 268 -287 -19 -76 -56 -140 -178 -311 -223 -310 -415 -531 -696
-801 -111 -107 -372 -361 -578 -565 -369 -363 -525 -504 -727 -656 -55 -42
-140 -111 -190 -155 -84 -74 -162 -132 -514 -383 -80 -57 -170 -125 -201 -152
-30 -26 -65 -48 -76 -48 -11 0 -75 20 -142 45 -273 101 -297 122 -420 366 -50
98 -91 191 -91 205 0 14 10 49 23 77 19 44 22 69 21 162 -1 87 -34 436 -49
515 -2 9 -6 61 -10 116 -8 114 -13 129 -49 165 -25 26 -41 33 -169 83 -37 14
-109 52 -160 83 -95 58 -311 184 -407 237 -48 27 -65 31 -130 31 -63 0 -88 -5
-155 -34 -43 -18 -154 -52 -246 -76 -150 -38 -169 -41 -197 -29 -33 13 -53 57
-35 75 5 5 129 49 275 98 233 78 275 95 334 137 83 59 117 62 171 16 85 -73
166 -128 294 -199 189 -106 244 -147 415 -315 92 -90 167 -154 190 -164 52
-22 204 -62 268 -70 28 -4 57 -8 65 -9 8 -1 36 2 64 6 92 15 118 55 178 274
27 99 60 166 96 195 30 23 38 23 205 4 31 -3 69 -3 83 0 14 4 58 36 98 73 80
74 117 93 177 93 69 0 117 36 179 135 51 81 75 174 67 262 -7 92 -61 345 -131
618 -62 244 -64 254 -70 403 -7 176 -51 250 -189 313 -161 74 -192 113 -82
105 118 -9 144 -20 222 -102 58 -59 78 -74 102 -74 57 0 94 50 121 165 7 30
35 84 70 135 31 47 74 113 94 146 43 71 54 82 103 99 60 21 113 2 323 -111z
m-3584 23 c13 -10 16 -21 12 -38 -8 -31 -399 -486 -588 -685 -169 -177 -240
-272 -320 -431 -109 -215 -121 -300 -59 -431 63 -131 62 -128 41 -154 l-19
-23 -25 20 c-14 11 -69 54 -124 96 -54 42 -138 109 -188 148 -99 78 -217 142
-310 167 -62 17 -125 66 -125 97 0 43 71 68 200 72 110 3 150 15 246 73 43 27
125 77 181 111 195 119 537 443 821 778 95 111 180 204 190 206 32 9 48 7 67
-6z m-4326 -105 c9 -17 28 -131 52 -322 23 -176 51 -240 146 -331 65 -62 70
-69 121 -200 61 -155 149 -320 241 -449 67 -96 247 -299 294 -334 26 -19 30
-19 55 -5 37 20 40 53 20 187 -21 138 -37 197 -89 315 -23 51 -76 179 -120
285 -86 211 -96 258 -59 305 49 62 61 144 40 256 -15 82 13 126 65 98 12 -6
82 -78 153 -158 136 -152 197 -207 392 -349 299 -217 463 -382 555 -557 27
-52 27 -52 12 -120 -9 -37 -18 -93 -22 -123 -19 -172 -52 -272 -133 -408 -70
-119 -109 -232 -122 -353 -16 -161 -49 -222 -172 -327 -41 -35 -104 -98 -140
-140 -36 -42 -107 -125 -158 -185 -104 -121 -225 -235 -415 -387 -71 -57 -200
-172 -285 -255 -85 -83 -202 -189 -260 -235 -58 -47 -141 -119 -185 -160 -44
-42 -191 -178 -326 -302 -213 -196 -587 -571 -648 -650 -22 -27 -174 -158
-185 -158 -17 0 2 55 85 246 200 459 222 512 250 587 39 103 46 198 25 301
-20 99 -20 201 0 279 18 71 14 109 -23 221 -28 87 -28 120 3 265 l18 83 197
163 c186 154 252 220 326 328 40 57 151 141 217 163 66 22 175 15 236 -16 61
-31 437 -284 535 -359 43 -33 87 -61 96 -61 26 0 49 28 49 60 0 35 -98 164
-236 310 -55 58 -121 133 -147 166 -25 34 -69 82 -97 108 -95 85 -157 121
-491 287 -66 32 -82 46 -122 102 -59 82 -115 132 -207 182 -39 22 -85 54 -101
72 -43 50 -65 149 -60 266 2 31 88 74 262 132 197 66 221 84 240 174 14 67 30
102 75 158 19 22 38 53 44 68 14 37 12 157 -5 245 -38 198 -45 254 -45 382 0
75 3 143 6 152 8 21 31 20 43 -2z m905 -81 c23 -10 75 -49 116 -87 42 -39 112
-91 156 -118 44 -26 107 -70 139 -97 71 -61 107 -80 227 -119 115 -36 186 -84
240 -158 23 -31 70 -81 104 -109 94 -79 224 -263 210 -298 -7 -19 -124 -78
-142 -71 -7 3 -33 36 -58 73 -88 136 -342 373 -486 453 -120 66 -233 152 -430
324 -88 77 -178 147 -207 161 -55 26 -66 46 -35 65 23 14 115 4 166 -19z
m-1855 -57 c30 -38 61 -129 61 -179 0 -26 -12 -74 -27 -112 -23 -57 -28 -82
-27 -153 0 -72 5 -97 32 -160 41 -99 54 -163 46 -219 -6 -41 -16 -55 -84 -121
-106 -102 -132 -157 -151 -314 -19 -164 -53 -260 -134 -377 -18 -27 -45 -81
-60 -121 -65 -176 -138 -292 -253 -402 -35 -33 -44 -37 -57 -26 -8 7 -15 21
-15 32 0 10 -12 31 -26 45 -24 24 -31 25 -93 21 -49 -4 -83 -13 -121 -34 -55
-30 -211 -179 -485 -465 -77 -80 -165 -166 -195 -190 l-54 -44 20 35 c187 315
245 393 400 535 60 54 152 141 204 191 98 95 124 111 295 187 95 42 143 59
243 87 65 17 124 77 170 173 100 206 122 380 77 607 l-17 85 36 108 c36 106
36 108 34 255 -3 139 -2 151 25 221 41 111 36 142 -27 185 -14 10 -16 17 -8
32 16 30 139 144 155 144 9 0 25 -12 36 -26z m11734 -556 c13 -24 50 -86 82
-138 32 -52 89 -158 126 -235 37 -77 101 -210 142 -296 41 -86 109 -218 151
-293 42 -76 111 -212 152 -304 128 -283 178 -377 295 -552 118 -178 245 -327
461 -540 180 -178 222 -230 185 -230 -7 0 -46 36 -86 80 -45 50 -134 127 -234
202 -242 183 -383 333 -499 531 -54 94 -324 630 -417 832 -41 88 -95 188 -120
222 -53 72 -108 159 -251 402 l-103 173 13 72 c17 98 25 116 54 116 18 0 31
-11 49 -42z m-4922 -194 c10 -13 10 -24 0 -62 -7 -26 -16 -99 -22 -162 -15
-194 -20 -234 -29 -275 -5 -22 -10 -103 -10 -181 0 -155 -9 -196 -45 -212 -22
-10 -29 -8 -61 20 -48 43 -107 132 -153 232 -21 46 -47 86 -57 90 -12 4 -39
-4 -78 -24 -64 -34 -100 -34 -111 0 -11 36 5 59 83 119 98 75 221 203 295 308
55 79 140 163 163 163 6 0 17 -7 25 -16z m4858 -116 c19 -61 101 -246 251
-563 72 -154 153 -325 179 -380 26 -55 93 -181 148 -280 55 -99 123 -225 151
-280 97 -195 236 -352 448 -510 236 -175 268 -201 344 -272 97 -91 109 -116
85 -181 -35 -93 -110 -228 -182 -324 -94 -126 -276 -314 -345 -355 -29 -18
-132 -64 -228 -103 -96 -39 -208 -89 -250 -112 -41 -22 -163 -86 -270 -142
-352 -184 -622 -371 -913 -633 -49 -44 -132 -106 -185 -138 -258 -156 -396
-289 -377 -362 7 -29 48 -73 68 -73 7 0 77 42 154 93 123 82 368 214 430 232
19 5 17 -3 -23 -72 -46 -81 -47 -84 -44 -170 1 -38 -6 -69 -26 -114 -27 -59
-27 -62 -10 -93 9 -17 14 -38 11 -46 -3 -8 -34 -33 -68 -55 l-62 -40 4 -70 c1
-39 4 -71 5 -72 2 -2 42 -11 59 -12 20 -2 3 -43 -28 -68 -36 -29 -45 -59 -23
-81 19 -19 94 -14 174 13 83 28 114 31 114 12 0 -7 6 -22 14 -32 14 -19 15
-19 33 -2 44 39 50 22 52 -137 l2 -116 -75 0 c-53 0 -115 10 -208 34 -73 19
-160 39 -193 46 -33 6 -98 21 -145 33 -78 19 -113 21 -425 22 -339 0 -340 0
-420 26 -90 30 -140 28 -310 -10 -74 -16 -214 -38 -482 -75 l-33 -5 -2 57 c-5
143 -2 221 11 236 8 10 34 16 74 18 61 3 62 3 59 31 -3 30 9 34 54 17 36 -14
39 -9 13 24 -12 15 -19 30 -16 33 5 5 56 -10 109 -32 11 -4 18 0 22 13 4 11
21 25 39 32 18 6 45 17 61 24 l30 12 -50 24 c-64 30 -114 67 -114 85 0 7 26
26 58 40 62 29 59 37 -19 50 -71 11 -74 56 -5 69 18 4 41 15 50 25 15 17 16
19 1 25 -9 3 -28 6 -41 6 -42 0 -94 27 -94 49 0 11 5 23 11 27 7 4 8 23 4 52
l-7 45 47 -6 c37 -6 47 -4 52 10 4 11 -1 22 -16 32 -88 58 -181 135 -181 149
0 9 12 30 26 46 l26 29 131 -42 c126 -39 228 -63 235 -56 10 10 -13 25 -61 40
-58 19 -327 163 -327 175 0 5 -12 23 -26 40 -15 17 -25 33 -22 35 2 2 45 -9
96 -25 181 -59 331 -81 996 -151 308 -32 351 -33 351 -9 0 53 -351 144 -635
165 -332 23 -534 53 -702 102 -87 26 -102 35 -73 47 24 9 18 21 -18 38 -19 9
-54 39 -78 68 -83 99 -97 110 -125 110 -29 0 -64 -25 -64 -45 0 -6 -6 -19 -13
-29 -12 -16 -41 -3 -368 162 -383 193 -492 241 -627 273 -378 91 -428 107
-404 131 4 4 50 23 102 42 93 34 793 347 940 421 112 56 224 125 340 210 122
90 164 112 280 150 192 63 362 176 561 375 212 212 371 431 574 795 61 108
120 205 133 215 28 22 60 15 74 -16 22 -48 -130 -333 -362 -678 -104 -156
-170 -264 -170 -280 0 -8 17 -6 138 10 62 8 78 -3 119 -78 29 -53 62 -82 140
-122 69 -35 75 -47 58 -130 -21 -99 -43 -143 -257 -500 -58 -98 -121 -165
-488 -516 -268 -258 -390 -401 -390 -462 0 -16 9 -46 20 -67 36 -71 73 -69
195 14 125 83 289 166 502 254 418 171 695 344 1172 729 63 50 155 120 205
154 120 81 196 160 237 244 29 59 34 79 37 163 3 70 -2 123 -17 195 -32 157
-18 266 50 376 68 111 108 225 129 370 14 97 14 407 0 459 -20 74 -94 131
-136 103 -6 -4 -42 -58 -78 -120 -161 -271 -476 -632 -552 -632 -28 0 -39 19
-30 53 3 12 38 58 77 102 128 146 185 245 336 585 41 92 83 169 114 210 l51
65 -7 66 c-3 36 -12 90 -20 120 -19 68 -37 270 -30 326 3 23 10 54 15 69 l11
27 23 -22 c13 -12 29 -40 35 -63z m-13144 -691 c21 -33 21 -60 0 -160 -16 -78
-17 -95 -5 -150 32 -156 24 -199 -76 -400 -84 -170 -141 -265 -224 -373 -115
-149 -182 -250 -250 -377 -36 -66 -71 -122 -77 -125 -12 -3 -20 159 -17 374 1
78 28 136 108 227 96 109 135 165 183 262 52 107 65 149 97 318 23 125 25 129
63 162 40 34 83 106 123 208 25 63 48 74 75 34z m20309 -944 c198 -208 256
-275 359 -418 175 -241 223 -285 675 -603 218 -154 476 -338 572 -408 328
-240 385 -279 593 -413 l208 -134 -32 -33 c-38 -39 -24 -45 35 -15 l38 20 39
-26 c21 -14 39 -28 39 -31 0 -10 -78 -107 -137 -171 l-59 -65 -80 43 c-80 43
-211 142 -220 166 -3 7 -56 51 -117 98 -168 128 -289 231 -448 384 -225 215
-423 399 -550 510 -64 56 -190 180 -280 275 -169 178 -270 281 -447 452 -56
55 -130 139 -164 187 -68 96 -168 266 -168 286 0 33 41 3 144 -104z m-16273
-572 c21 -17 22 -21 10 -50 -17 -40 -9 -90 28 -184 16 -39 43 -124 61 -187 18
-63 53 -164 77 -225 57 -139 62 -190 31 -310 -20 -75 -27 -90 -43 -90 -12 0
-21 8 -23 20 -12 64 -107 336 -128 368 -50 76 -182 111 -325 87 -55 -9 -102
-27 -187 -71 -62 -33 -118 -59 -124 -59 -16 0 -48 30 -48 45 0 6 66 73 148
149 184 171 315 316 384 422 66 104 95 121 139 85z m4533 -925 c35 -14 115
-49 178 -80 115 -56 361 -140 568 -196 182 -48 282 -91 640 -273 184 -93 345
-176 358 -184 21 -13 21 -15 7 -43 l-15 -29 -102 44 c-563 241 -701 296 -941
377 -390 130 -570 210 -713 318 -40 30 -54 47 -54 65 0 14 2 25 5 25 2 0 34
-11 69 -24z m14236 -315 c12 -24 12 -32 1 -49 -6 -11 -16 -8 -45 12 l-37 25
28 15 c37 20 40 20 53 -3z m-26637 -221 c70 -104 127 -193 127 -196 0 -10 -33
-33 -47 -34 -10 0 -165 244 -207 327 -17 34 -22 93 -8 93 5 0 66 -85 135 -190z
m26660 -217 c-10 -30 -54 -103 -61 -103 -4 1 -22 9 -40 19 l-34 17 34 26 c35
26 88 57 100 58 4 0 5 -8 1 -17z m-8887 -198 c4 -8 -22 -47 -63 -97 -38 -46
-111 -138 -161 -204 -129 -170 -208 -252 -311 -323 -49 -33 -100 -74 -114 -90
-22 -27 -28 -29 -62 -21 -53 12 -74 34 -57 61 8 12 10 33 6 55 l-7 36 44 -4
c70 -5 62 20 -29 85 -43 31 -86 65 -95 75 -15 17 -15 20 1 43 9 13 24 39 34
58 16 31 16 36 1 65 -8 17 -26 46 -39 63 l-25 32 23 6 c13 3 109 23 213 45
226 46 480 104 515 119 39 16 120 14 126 -4z m-17126 -635 c0 -5 -4 -10 -10
-10 -5 0 -10 5 -10 10 0 6 5 10 10 10 6 0 10 -4 10 -10z m24025 -110 c3 -5 -1
-10 -10 -10 -9 0 -13 5 -10 10 3 6 8 10 10 10 2 0 7 -4 10 -10z m862 -336 c-3
-3 -12 -4 -19 -1 -8 3 -5 6 6 6 11 1 17 -2 13 -5z"/>
<path d="M15684 10133 c-14 -15 -15 -28 -8 -107 5 -50 8 -122 7 -161 -1 -38
-4 -172 -6 -297 -5 -203 -4 -228 12 -242 21 -19 92 -35 156 -36 141 -1 271
-55 443 -184 85 -63 135 -93 198 -117 97 -37 155 -75 213 -140 55 -63 148
-126 163 -111 15 15 -11 72 -83 182 -101 153 -175 230 -542 563 -155 141 -205
195 -255 278 -21 34 -44 65 -52 67 -22 8 -6 -79 24 -126 36 -57 34 -79 -9 -99
-47 -22 -61 -8 -75 72 -6 33 -27 107 -47 165 -26 75 -37 128 -41 190 -2 47 -9
93 -14 103 -11 22 -61 22 -84 0z m593 -780 c61 -60 116 -118 122 -131 12 -22
10 -22 -50 8 -34 18 -83 52 -110 77 -59 55 -110 153 -81 153 5 0 58 -48 119
-107z"/>
<path d="M15850 8425 c-15 -18 -15 -65 -1 -128 12 -53 -4 -149 -35 -210 -52
-100 -150 -224 -219 -276 -287 -216 -464 -333 -640 -421 -133 -66 -150 -78
-153 -102 -4 -34 24 -51 64 -39 39 11 164 74 244 124 62 38 118 70 435 250
192 108 344 210 446 299 119 102 178 144 278 197 66 36 87 51 89 70 6 40 -10
45 -132 42 -177 -4 -229 19 -273 118 -39 87 -73 113 -103 76z"/>
<path d="M15360 8109 c-14 -6 -63 -36 -110 -68 -47 -32 -146 -94 -220 -138
-74 -44 -229 -136 -344 -204 -114 -68 -215 -134 -224 -147 -12 -18 -12 -28 -4
-47 17 -36 47 -32 148 21 49 25 195 99 325 165 186 93 261 137 355 208 121 90
184 150 184 176 0 38 -55 56 -110 34z"/>
<path d="M9123 8718 c-11 -13 -26 -41 -33 -63 -7 -22 -29 -65 -50 -95 -20 -30
-58 -86 -84 -125 -26 -38 -57 -76 -69 -82 -12 -7 -48 -13 -79 -13 -142 0 -149
-48 -27 -195 116 -141 163 -185 196 -185 62 0 116 105 183 355 28 105 59 214
70 243 26 68 26 143 2 165 -27 25 -84 22 -109 -5z"/>
<path d="M8141 7624 c-12 -15 -21 -36 -22 -48 -2 -77 -27 -184 -56 -241 -9
-16 -61 -100 -116 -185 -110 -170 -153 -253 -247 -469 -44 -102 -64 -161 -67
-202 -3 -33 -2 -59 3 -59 21 0 55 34 115 112 99 131 252 307 444 513 197 210
226 247 250 309 25 65 9 108 -67 188 -102 106 -193 137 -237 82z"/>
<path d="M19104 8050 c27 -283 39 -377 57 -446 11 -43 22 -109 24 -145 5 -99
29 -136 127 -195 64 -39 86 -66 113 -139 25 -68 60 -100 131 -121 101 -29 115
-38 303 -201 46 -41 80 -63 96 -63 23 0 25 3 21 38 -3 20 -8 63 -11 96 -6 66
-16 88 -55 131 -15 17 -33 47 -40 68 -13 40 -12 40 -140 124 -91 59 -216 161
-306 250 -107 105 -166 225 -223 446 -30 119 -57 183 -86 207 -16 13 -17 9
-11 -50z"/>
<path d="M16625 4980 c27 -12 43 -12 25 0 -8 5 -22 9 -30 9 -10 0 -8 -3 5 -9z"/>
<path d="M16574 12252 c-6 -4 -24 -31 -39 -60 -16 -30 -66 -96 -112 -148 -46
-52 -85 -105 -88 -117 -9 -35 11 -76 40 -83 20 -5 34 2 70 35 24 22 55 43 69
47 48 12 150 -33 224 -99 27 -24 83 -61 125 -83 67 -34 78 -37 91 -24 12 13
10 28 -18 110 -28 86 -41 108 -135 230 -135 175 -159 200 -190 200 -15 0 -31
-4 -37 -8z"/>
<path d="M17214 11202 c-34 -23 -14 -73 109 -280 83 -140 170 -242 305 -357
66 -56 147 -138 195 -197 135 -166 133 -165 154 -152 10 6 20 19 21 28 4 19
-167 278 -270 408 -38 48 -107 121 -152 163 -85 77 -149 160 -226 295 -23 41
-50 81 -58 88 -17 13 -61 16 -78 4z"/>
<path d="M16918 10592 c-30 -45 -56 -117 -65 -178 -5 -38 -2 -46 24 -71 52
-48 109 -91 170 -127 85 -50 167 -112 263 -201 96 -89 150 -125 273 -186 57
-29 90 -40 97 -33 6 6 -106 138 -331 389 -187 209 -355 395 -373 413 l-33 33
-25 -39z"/>
<path d="M22223 10242 c-59 -37 -14 -256 104 -502 55 -115 55 -115 213 -271
88 -87 176 -183 199 -218 22 -34 54 -106 72 -159 66 -200 238 -602 276 -644
15 -17 43 -25 43 -13 0 3 -26 78 -59 168 -32 89 -82 239 -110 332 -63 207
-104 321 -144 400 -61 123 -218 383 -282 465 -36 47 -86 113 -111 148 -48 65
-93 175 -94 228 0 54 -64 94 -107 66z"/>
<path d="M19430 9538 c104 -185 164 -325 184 -428 l7 -35 -24 27 c-14 14 -48
66 -77 115 -68 114 -123 185 -167 219 l-36 27 6 -34 c3 -19 28 -72 56 -119 77
-128 221 -425 291 -600 34 -85 85 -199 112 -253 81 -157 317 -505 589 -866 60
-79 113 -131 123 -120 3 3 -38 79 -91 169 -108 187 -134 240 -333 680 -173
382 -266 595 -331 758 -27 68 -68 160 -90 205 -82 163 -202 327 -240 327 -18
0 -15 -8 21 -72z"/>
<path d="M24050 8218 c-24 -26 -25 -40 -6 -76 24 -45 86 -98 181 -153 163 -95
249 -142 310 -169 106 -47 108 -68 17 -182 -128 -160 -149 -206 -112 -245 33
-36 62 -29 142 36 108 87 149 105 234 106 61 0 77 -4 119 -30 51 -32 58 -42
139 -215 95 -201 478 -662 791 -951 81 -75 164 -141 198 -160 32 -17 60 -29
62 -27 7 7 -38 86 -79 140 -22 29 -110 148 -195 263 -175 239 -267 355 -371
470 -171 189 -298 387 -414 644 -65 142 -125 237 -170 266 -13 9 -47 17 -77
19 -42 2 -76 15 -150 55 -53 28 -145 69 -205 91 -59 22 -133 55 -163 72 -120
67 -215 85 -251 46z"/>
<path d="M10904 7503 c-36 -39 -39 -64 -15 -156 34 -132 26 -232 -28 -347 -27
-59 -26 -85 6 -145 36 -66 43 -193 18 -296 -18 -78 -12 -114 27 -156 21 -22
63 -30 83 -15 6 4 37 41 70 82 33 41 106 122 161 181 134 141 151 181 136 319
-18 154 -47 201 -245 398 -90 89 -169 162 -176 162 -6 0 -23 -12 -37 -27z"/>
<path d="M12613 5594 c-53 -24 88 -184 162 -184 72 0 54 100 -27 156 -36 25
-108 40 -135 28z"/>
<path d="M23310 5115 c0 -5 56 -35 65 -35 3 0 4 4 1 9 -6 10 -66 33 -66 26z"/>
<path d="M27798 4193 c7 -3 16 -2 19 1 4 3 -2 6 -13 5 -11 0 -14 -3 -6 -6z"/>
<path d="M9330 4169 c-30 -3 -91 -16 -135 -29 -120 -35 -280 -33 -393 3 -46
15 -105 27 -133 27 -27 0 -138 -18 -247 -40 -269 -53 -301 -59 -422 -65 -58
-3 -123 -8 -145 -11 -55 -8 -290 -69 -672 -175 -515 -143 -686 -174 -1268
-229 -115 -11 -232 -22 -259 -25 -532 -58 -523 -57 -1161 -62 -455 -3 -640 -7
-727 -18 -64 -8 -208 -15 -320 -16 -200 -1 -202 -1 -138 -15 52 -11 174 -14
599 -14 294 1 538 3 542 6 5 3 124 9 266 14 142 5 308 16 368 23 61 8 182 15
270 15 178 2 230 5 525 33 113 10 232 21 265 24 141 12 566 56 640 66 405 53
977 177 1265 272 l155 52 360 2 c326 2 637 -5 1003 -22 167 -8 288 -33 394
-80 293 -131 321 -136 758 -133 620 5 594 7 910 -61 134 -29 213 -27 408 13
279 57 417 69 742 66 447 -4 519 -3 620 13 52 8 158 15 235 16 76 1 141 4 143
6 2 2 -175 3 -394 2 -220 -1 -462 2 -539 6 -203 11 -477 26 -570 32 -44 3
-170 7 -280 10 -293 9 -380 20 -518 66 -130 43 -162 46 -257 23 -54 -13 -108
-15 -320 -10 -300 8 -357 11 -595 37 -347 38 -454 65 -589 148 l-60 36 -135 0
c-75 0 -161 -3 -191 -6z"/>
<path d="M14003 3843 c43 -2 110 -2 150 0 40 1 5 3 -78 3 -82 0 -115 -2 -72
-3z"/>
<path d="M24398 3663 c6 -2 18 -2 25 0 6 3 1 5 -13 5 -14 0 -19 -2 -12 -5z"/>
</g>
</svg>
